{"asset":{"version":"2.0","generator":"VECTARY"},"nodes":[{"translation":[-3.609557097661309e-16,0,0],"scale":[0.0254,0.0254,0.0254],"rotation":[-0.7071067811865475,0,0,0.7071067811865476],"name":"Group","children":[1]},{"translation":[0,0,0],"scale":[1,1,1],"rotation":[0,0,0,1],"name":"Sphere","mesh":0},{"translation":[1.3204710265090502,4.116832106396835,-4.9985267169316],"scale":[1,1,1],"rotation":[0.03206821949374572,-0.9604340094927025,-0.24694717098622979,-0.12472063762734006],"name":"Camera","camera":0}],"materials":[{"pbrMetallicRoughness":{"baseColorFactor":[1,0.9573695761995268,1,1],"baseColorTexture":{"index":0,"extensions":{"KHR_texture_transform":{"offset":[0,0],"scale":[1,1],"rotation":0}},"texCoord":0},"metallicRoughnessTexture":{"index":2,"extensions":{"KHR_texture_transform":{"offset":[0,0],"scale":[1,1],"rotation":0}},"texCoord":0},"metallicFactor":1,"roughnessFactor":0.1},"name":"Sphere material","normalTexture":{"index":1,"scale":0.1,"extensions":{"KHR_texture_transform":{"offset":[0,0],"scale":[1,1],"rotation":0}},"texCoord":0},"emissiveFactor":[0.2,0.2,0.2],"alphaMode":"OPAQUE","doubleSided":false}],"textures":[{"sampler":0,"source":0},{"sampler":0,"source":1},{"sampler":0,"source":2}],"images":[{"uri":"6b085645-a21f-4a99-8167-055910d3143f.jpg","mimeType":"image/jpeg"},{"uri":"8ca1bfd8-f07a-47a1-92ab-54b943360349.jpg","mimeType":"image/jpeg"},{"uri":"c439d955-3de0-434d-925c-60b476972066.jpg","mimeType":"image/jpeg"}],"samplers":[{"wrapS":10497,"wrapT":10497}],"meshes":[{"primitives":[{"mode":4,"attributes":{"POSITION":1,"NORMAL":2,"TEXCOORD_0":3},"material":0,"indices":0}]}],"accessors":[{"bufferView":0,"byteOffset":0,"componentType":5125,"count":14700,"type":"SCALAR"},{"bufferView":1,"byteOffset":0,"componentType":5126,"count":2662,"max":[50,49.901336669921875,100],"min":[-50,-49.901336669921875,0],"type":"VEC3"},{"bufferView":2,"byteOffset":0,"componentType":5126,"count":2662,"type":"VEC3"},{"bufferView":3,"byteOffset":0,"componentType":5126,"count":2662,"type":"VEC2"}],"bufferViews":[{"buffer":0,"byteOffset":0,"byteLength":58800,"target":34963},{"buffer":0,"byteOffset":58800,"byteLength":31944,"target":34962},{"buffer":0,"byteOffset":90744,"byteLength":31944,"target":34962},{"buffer":0,"byteOffset":122688,"byteLength":21296,"target":34962}],"cameras":[{"name":"Camera","type":"perspective","extras":{"targetDistance":5.901979868829253},"perspective":{"aspectRatio":1.6622922134733158,"yfov":0.6108652381980153,"zfar":731.3323682523369,"znear":0.048320953583792466}}],"scene":0,"scenes":[{"nodes":[0,2],"name":"pearl3"}],"extensionsUsed":["KHR_texture_transform"],"buffers":[{"byteLength":143984,"uri":"pearl3.bin"}]}